<svg width="303" height="396" viewBox="0 0 303 396" fill="none" xmlns="http://www.w3.org/2000/svg">
    <g clip-path="url(#clip0_19_997)">
        <path d="M234.271 0.113556H49.5147C44.7529 0.113556 40.8927 3.97416 40.8927 8.73645V365.749C40.8927 370.511 44.7529 374.372 49.5147 374.372H234.271C239.033 374.372 242.893 370.511 242.893 365.749V8.73645C242.893 3.97416 239.033 0.113556 234.271 0.113556Z" fill="#302E38"/>
        <path d="M143.445 363.951C152.07 363.951 159.063 356.957 159.063 348.331C159.063 339.704 152.07 332.711 143.445 332.711C134.819 332.711 127.827 339.704 127.827 348.331C127.827 356.957 134.819 363.951 143.445 363.951Z" stroke="#CB1122" stroke-miterlimit="10"/>
        <path d="M226.905 10.5349H57.4468C52.685 10.5349 48.8248 14.3955 48.8248 19.1578V317.633C48.8248 322.396 52.685 326.256 57.4468 326.256H226.905C231.667 326.256 235.527 322.396 235.527 317.633V19.1578C235.527 14.3955 231.667 10.5349 226.905 10.5349Z" fill="white"/>
        <path d="M122.013 115.907H31.2114C26.4497 115.907 22.5895 119.767 22.5895 124.53V179.125C22.5895 183.887 26.4497 187.748 31.2114 187.748H122.013C126.775 187.748 130.635 183.887 130.635 179.125V124.53C130.635 119.767 126.775 115.907 122.013 115.907Z" fill="#306977"/>
        <path d="M130.635 130.837H22.5895V147.294H130.635V130.837Z" fill="#62ABB7"/>
        <path d="M90.3334 154.414H31.2114V158.578H90.3334V154.414Z" fill="#B3B3CE"/>
        <path d="M90.3334 164.22H31.2114V168.383H90.3334V164.22Z" fill="#B3B3CE"/>
        <path d="M112.701 160.376C112.701 161.556 112.351 162.71 111.695 163.691C111.039 164.672 110.106 165.436 109.015 165.887C107.925 166.337 106.725 166.454 105.568 166.222C104.411 165.99 103.348 165.42 102.516 164.583C101.683 163.747 101.117 162.682 100.89 161.524C100.663 160.366 100.784 159.166 101.239 158.077C101.694 156.988 102.462 156.059 103.446 155.407C104.429 154.755 105.584 154.409 106.764 154.414C107.546 154.414 108.32 154.568 109.042 154.868C109.764 155.168 110.42 155.608 110.971 156.162C111.523 156.716 111.96 157.373 112.256 158.096C112.553 158.82 112.704 159.594 112.701 160.376Z" fill="#CB1122"/>
        <path d="M121.988 160.376C121.988 161.555 121.639 162.708 120.984 163.689C120.329 164.669 119.398 165.433 118.308 165.884C117.219 166.336 116.02 166.454 114.864 166.224C113.707 165.994 112.645 165.426 111.812 164.592C110.978 163.758 110.41 162.696 110.18 161.539C109.95 160.383 110.068 159.184 110.519 158.095C110.97 157.005 111.735 156.074 112.715 155.419C113.695 154.764 114.848 154.414 116.027 154.414C116.811 154.411 117.587 154.563 118.312 154.861C119.037 155.16 119.695 155.599 120.25 156.153C120.804 156.707 121.243 157.366 121.541 158.091C121.84 158.816 121.992 159.592 121.988 160.376Z" fill="#EAC428"/>
        <path d="M247.998 178.886C262.95 172.64 270.008 155.454 263.763 140.501C257.517 125.547 240.334 118.489 225.382 124.735C210.43 130.98 203.372 148.166 209.617 163.119C215.863 178.073 233.046 185.131 247.998 178.886Z" fill="#E8A82A"/>
        <path d="M265.318 156.273C268.79 141.49 259.622 126.691 244.841 123.219C230.061 119.746 215.264 128.915 211.791 143.697C208.319 158.48 217.486 173.278 232.267 176.751C247.048 180.224 261.845 171.055 265.318 156.273Z" fill="#EAC428"/>
        <path d="M238.557 174.69C251.958 174.69 262.822 163.825 262.822 150.423C262.822 137.02 251.958 126.156 238.557 126.156C225.156 126.156 214.292 137.02 214.292 150.423C214.292 163.825 225.156 174.69 238.557 174.69Z" fill="#FFDD50"/>
        <path d="M237.35 165.18H237.005C236.102 165.18 235.281 165.18 234.542 165.18C233.186 165.088 231.846 164.831 230.551 164.417C229.911 164.22 229.245 163.998 228.531 163.727C228.652 162.851 228.842 161.986 229.098 161.14C229.319 160.327 229.59 159.465 229.886 158.676C230.944 159.108 232.041 159.438 233.162 159.662C234.262 159.836 235.374 159.918 236.488 159.908C237.9 159.98 239.306 159.665 240.552 158.997C240.992 158.684 241.345 158.264 241.578 157.777C241.811 157.29 241.916 156.751 241.883 156.213C241.907 155.636 241.771 155.065 241.489 154.562C241.232 154.141 240.887 153.779 240.479 153.503C240.057 153.211 239.602 152.971 239.124 152.788L237.67 152.172L235.478 151.211C234.631 150.854 233.808 150.443 233.014 149.979C232.286 149.581 231.629 149.065 231.068 148.452C230.519 147.841 230.093 147.13 229.812 146.358C229.504 145.404 229.362 144.404 229.393 143.401C229.328 142.324 229.482 141.244 229.847 140.228C230.211 139.212 230.777 138.28 231.512 137.489C233.101 135.956 235.174 135.024 237.375 134.852V130.344C237.953 130.188 238.549 130.105 239.148 130.098C239.771 130.11 240.391 130.193 240.996 130.344V134.631C242.074 134.717 243.144 134.881 244.198 135.123C245.3 135.372 246.385 135.684 247.45 136.06C247.27 137.702 246.812 139.301 246.095 140.79L244.839 140.297C244.39 140.125 243.929 139.985 243.459 139.878C242.991 139.878 242.425 139.681 241.833 139.607C241.136 139.566 240.437 139.566 239.74 139.607C239.264 139.572 238.786 139.572 238.311 139.607C237.851 139.668 237.407 139.819 237.005 140.051C236.611 140.277 236.28 140.599 236.044 140.987C235.779 141.46 235.651 141.997 235.675 142.539C235.665 143.029 235.757 143.516 235.946 143.968C236.139 144.34 236.407 144.667 236.734 144.929C237.084 145.202 237.464 145.433 237.867 145.619L239.124 146.161L241.587 147.196C242.655 147.639 243.615 148.082 244.469 148.526C245.272 148.942 246.004 149.482 246.637 150.127C247.254 150.789 247.731 151.568 248.041 152.419C248.394 153.516 248.561 154.666 248.534 155.818C248.594 157.907 247.914 159.949 246.612 161.583C245.144 163.248 243.156 164.368 240.971 164.762V169.689C240.387 169.857 239.781 169.94 239.173 169.935C238.557 169.938 237.943 169.855 237.35 169.689V165.18Z" fill="white"/>
        <path d="M205.419 179.896C218.06 175.447 224.7 161.591 220.251 148.949C215.802 136.306 201.948 129.665 189.307 134.114C176.666 138.564 170.026 152.42 174.475 165.062C178.924 177.704 192.778 184.346 205.419 179.896Z" fill="#E8A82A"/>
        <path d="M219.712 147.442C221.22 151.679 221.438 156.268 220.339 160.629C219.239 164.99 216.871 168.928 213.534 171.943C210.197 174.958 206.041 176.915 201.591 177.568C197.142 178.221 192.599 177.539 188.536 175.609C184.474 173.68 181.075 170.589 178.77 166.727C176.464 162.865 175.355 158.407 175.584 153.915C175.812 149.423 177.367 145.1 180.052 141.492C182.737 137.884 186.431 135.153 190.668 133.645C196.349 131.63 202.598 131.951 208.043 134.538C213.487 137.124 217.684 141.765 219.712 147.442Z" fill="#EAC428"/>
        <path d="M217.322 148.822C218.631 152.569 218.8 156.62 217.808 160.463C216.816 164.306 214.707 167.769 211.748 170.414C208.789 173.059 205.112 174.768 201.182 175.324C197.253 175.88 193.246 175.259 189.67 173.539C186.093 171.82 183.106 169.078 181.086 165.661C179.066 162.244 178.104 158.306 178.322 154.342C178.54 150.379 179.927 146.569 182.309 143.394C184.69 140.219 187.959 137.821 191.703 136.503C194.194 135.626 196.833 135.25 199.469 135.394C202.106 135.539 204.688 136.203 207.068 137.347C209.448 138.491 211.578 140.094 213.338 142.063C215.098 144.032 216.452 146.328 217.322 148.822Z" fill="#FFDD50"/>
        <path d="M201.557 167.25H201.286C200.657 167.49 200.015 167.695 199.364 167.866C198.808 168.031 198.239 168.154 197.664 168.235C197.122 168.235 196.581 168.383 196.039 168.408H194.29C194.121 167.746 194.014 167.069 193.969 166.388C193.969 165.673 193.969 164.934 193.969 164.17C194.916 164.225 195.866 164.175 196.802 164.022C197.699 163.859 198.581 163.62 199.438 163.308C200.561 162.99 201.57 162.358 202.345 161.485C202.644 161.122 202.834 160.681 202.891 160.214C202.947 159.747 202.869 159.273 202.665 158.849C202.531 158.389 202.266 157.978 201.901 157.666C201.59 157.414 201.229 157.229 200.842 157.124C200.432 157.015 200.01 156.957 199.586 156.952H198.28L196.31 156.829C195.541 156.783 194.776 156.693 194.019 156.558C193.338 156.444 192.68 156.219 192.072 155.892C191.476 155.572 190.949 155.136 190.521 154.611C190.014 153.951 189.622 153.209 189.363 152.419C189.013 151.601 188.833 150.721 188.833 149.832C188.833 148.942 189.013 148.062 189.363 147.245C190.18 145.613 191.538 144.316 193.206 143.574L191.999 140.125C192.398 139.833 192.838 139.6 193.304 139.435C193.79 139.271 194.295 139.171 194.807 139.139L195.989 142.465C196.853 142.224 197.734 142.052 198.625 141.948C199.487 141.948 200.423 141.8 201.409 141.775C201.735 143.104 201.826 144.48 201.68 145.84H200.547C200.153 145.805 199.758 145.805 199.364 145.84C198.908 145.895 198.456 145.978 198.009 146.087C197.451 146.223 196.9 146.387 196.359 146.58C195.989 146.715 195.627 146.871 195.275 147.048C194.939 147.231 194.639 147.473 194.388 147.762C194.143 148.043 193.973 148.383 193.895 148.748C193.801 149.196 193.853 149.662 194.043 150.078C194.155 150.463 194.368 150.812 194.659 151.088C194.897 151.35 195.205 151.538 195.546 151.63C195.888 151.755 196.243 151.838 196.605 151.877H197.714H199.955C200.891 151.877 201.778 152 202.567 152.098C203.311 152.21 204.033 152.434 204.71 152.763C205.369 153.106 205.955 153.575 206.434 154.143C207.001 154.891 207.45 155.722 207.764 156.607C208.328 158.201 208.328 159.94 207.764 161.534C207.087 163.237 205.854 164.661 204.266 165.575L205.597 169.344C205.18 169.622 204.734 169.853 204.266 170.034C203.78 170.196 203.275 170.295 202.764 170.33L201.557 167.25Z" fill="white"/>
        <path d="M210.597 244.979H76.1195C71.3577 244.979 67.4976 248.84 67.4976 253.602V268.63C67.4976 273.393 71.3577 277.253 76.1195 277.253H210.597C215.359 277.253 219.219 273.393 219.219 268.63V253.602C219.219 248.84 215.359 244.979 210.597 244.979Z" fill="#CB1122"/>
        <path d="M81.3226 251.239V250.673H85.2771V251.239H83.6191V255.946H82.9806V251.239H81.3226ZM90.4919 253.309C90.4919 253.865 90.3915 254.346 90.1907 254.751C89.9899 255.156 89.7144 255.469 89.3642 255.688C89.0141 255.908 88.6142 256.018 88.1645 256.018C87.7148 256.018 87.3149 255.908 86.9647 255.688C86.6146 255.469 86.3391 255.156 86.1383 254.751C85.9375 254.346 85.8371 253.865 85.8371 253.309C85.8371 252.753 85.9375 252.273 86.1383 251.868C86.3391 251.462 86.6146 251.15 86.9647 250.93C87.3149 250.711 87.7148 250.601 88.1645 250.601C88.6142 250.601 89.0141 250.711 89.3642 250.93C89.7144 251.15 89.9899 251.462 90.1907 251.868C90.3915 252.273 90.4919 252.753 90.4919 253.309ZM89.874 253.309C89.874 252.853 89.7976 252.467 89.6449 252.153C89.4938 251.839 89.2887 251.602 89.0295 251.44C88.7721 251.279 88.4837 251.198 88.1645 251.198C87.8452 251.198 87.556 251.279 87.2969 251.44C87.0394 251.602 86.8343 251.839 86.6815 252.153C86.5305 252.467 86.455 252.853 86.455 253.309C86.455 253.766 86.5305 254.151 86.6815 254.465C86.8343 254.779 87.0394 255.017 87.2969 255.178C87.556 255.34 87.8452 255.42 88.1645 255.42C88.4837 255.42 88.7721 255.34 89.0295 255.178C89.2887 255.017 89.4938 254.779 89.6449 254.465C89.7976 254.151 89.874 253.766 89.874 253.309ZM91.0577 251.239V250.673H95.0122V251.239H93.3542V255.946H92.7157V251.239H91.0577ZM95.5979 255.946H94.9285L96.8646 250.673H97.5237L99.4598 255.946H98.7904L97.2148 251.507H97.1736L95.5979 255.946ZM95.8451 253.886H98.5432V254.452H95.8451V253.886ZM100.281 255.946V250.673H100.92V255.379H103.371V255.946H100.281ZM104.72 255.271C104.593 255.271 104.484 255.226 104.393 255.135C104.302 255.044 104.256 254.935 104.256 254.808C104.256 254.681 104.302 254.572 104.393 254.481C104.484 254.39 104.593 254.344 104.72 254.344C104.847 254.344 104.956 254.39 105.047 254.481C105.138 254.572 105.183 254.681 105.183 254.808C105.183 254.892 105.162 254.969 105.119 255.039C105.078 255.11 105.022 255.166 104.951 255.209C104.883 255.251 104.805 255.271 104.72 255.271ZM104.72 252.604C104.593 252.604 104.484 252.558 104.393 252.467C104.302 252.376 104.256 252.267 104.256 252.14C104.256 252.013 104.302 251.904 104.393 251.813C104.484 251.723 104.593 251.677 104.72 251.677C104.847 251.677 104.956 251.723 105.047 251.813C105.138 251.904 105.183 252.013 105.183 252.14C105.183 252.225 105.162 252.302 105.119 252.372C105.078 252.443 105.022 252.499 104.951 252.542C104.883 252.583 104.805 252.604 104.72 252.604Z" fill="white"/>
        <path d="M150.613 149.265C149.85 151.408 147.632 153.182 147.362 155.498C147.164 157.075 149.135 157.962 150.318 159.194C150.318 157.617 150.318 155.991 150.318 154.414C150.132 152.693 150.232 150.953 150.613 149.265Z" fill="#E09B6C"/>
        <path d="M153.397 140.396C150.712 143.87 149.406 153.404 149.357 157.642C148.986 161.339 149.501 165.072 150.86 168.531C154.604 166.067 155.294 161.928 155.318 157.642C155.961 151.822 155.305 145.932 153.397 140.396Z" fill="#EFBC9A"/>
        <path d="M179.952 374.372C180.716 376.047 178.327 380.088 176.873 381.517C175.42 382.945 171.946 382.798 172.907 385.729C176.445 386.051 179.993 385.231 183.032 383.389C186.456 381.295 185.495 378.462 185.495 374.421C183.672 374.421 181.825 374.421 179.977 374.421" fill="#EFBC9A"/>
        <path d="M161.575 389.376C161.304 394.155 166.995 394.697 170.591 394.697C175.912 394.697 182.662 394.697 187.047 391.839C187.367 391.618 188.328 391.297 188.55 390.879C188.825 389.922 188.746 388.899 188.328 387.996C185.637 389.209 182.767 389.975 179.829 390.263C176.183 390.608 172.513 390.608 168.867 390.263C166.481 389.674 164.033 389.376 161.575 389.376Z" fill="#666461"/>
        <path d="M176.873 381.763C174.244 383.164 171.457 384.247 168.571 384.99C166.675 385.286 163.645 384.793 162.413 386.567C160.294 389.326 162.216 391.765 164.876 392.234C169.462 392.677 174.084 392.578 178.647 391.938C181.11 391.741 186.333 391.593 187.934 389.474C189.535 387.355 187.343 381.517 185.249 379.62C181.381 381.147 178.327 383.709 176.873 381.763Z" fill="#C1BCBC"/>
        <path d="M178.844 232.587C182.638 238.918 189.708 244.905 187.17 259.441C185.372 269.764 176.085 297.283 174.853 307.729C173.671 317.584 178.105 323.103 179.903 332.859C181.381 340.89 186.308 370.307 185.815 378.954C183.524 379.25 181.184 379.422 178.893 379.521C172.341 358.9 165.739 338.575 162.93 316.796C160.852 299.632 159.979 282.344 160.319 265.058C160.319 260.303 160.319 254.637 163.078 250.941C167.118 245.694 168.103 228.67 178.844 232.587Z" fill="#81A3A1"/>
        <path d="M155.762 376.121C156.525 377.796 154.136 381.837 152.682 383.266C151.229 384.695 147.756 384.547 148.716 387.479C152.267 387.746 155.811 386.884 158.841 385.015C162.265 382.921 161.304 380.088 161.304 376.023C159.482 376.023 157.634 376.023 155.786 376.023" fill="#EFBC9A"/>
        <path d="M137.385 391.1C137.089 395.904 142.779 396.446 146.401 396.446C151.722 396.446 158.471 396.57 162.832 393.564C163.152 393.342 164.137 393.047 164.334 392.628C164.621 391.673 164.542 390.645 164.113 389.745C161.463 390.945 158.633 391.694 155.737 391.963C152.083 392.32 148.404 392.32 144.75 391.963C142.338 391.385 139.865 391.096 137.385 391.1Z" fill="#666461"/>
        <path d="M152.732 383.512C150.102 384.913 147.315 385.996 144.43 386.74C142.533 387.035 139.503 386.542 138.247 388.316C136.128 391.076 138.074 393.515 140.71 393.983C145.296 394.426 149.918 394.327 154.481 393.687C156.944 393.465 162.167 393.318 163.792 391.223C165.418 389.129 163.201 383.266 161.083 381.369C157.191 382.872 154.136 385.458 152.732 383.512Z" fill="#D6D0D0"/>
        <path d="M174.163 247.714C177.415 254.316 174.459 253.282 173.326 260.426C171.7 270.774 159.063 297.209 156.92 307.483C154.875 317.338 158.866 323.078 159.826 332.957C160.615 341.087 163.029 370.824 161.797 379.398C159.506 379.398 157.141 379.398 154.85 379.398C150.071 358.309 145.218 337.515 144.282 315.539C143.644 298.274 144.228 280.985 146.031 263.802C146.524 259.071 146.844 253.43 149.973 249.98C154.505 244.905 163.792 242.86 174.163 247.714Z" fill="#95B7B6"/>
        <path d="M132.409 185.777C116.322 183.658 113.81 165.106 111.1 151.507C109.992 145.964 109.647 129.95 106.617 127.634C104.917 127.88 107.972 133.99 107.479 137.193C105.613 137.09 103.761 137.572 102.182 138.573C101.621 140.066 101.373 141.659 101.453 143.253C101.534 144.847 101.941 146.407 102.651 147.836C103.414 148.822 104.892 151.63 105.853 152.985C106.814 154.34 109.252 174.961 115.066 183.313C118.839 188.36 123.632 192.557 129.132 195.632C134.675 198.317 130.881 191.788 132.409 185.777Z" fill="#EFBC9A"/>
        <path d="M151.18 181.712C147.706 182.204 145.12 184.841 141.696 185.309C138.271 185.777 131.128 184.373 128.935 181.712C125.61 187.132 122.456 193.636 129.92 196.888C133.745 198.287 137.723 199.221 141.769 199.672C143.174 199.894 149.677 199.672 150.613 198.884C150.033 204.111 150.648 209.401 152.411 214.356C153.333 218.092 153.665 221.948 153.397 225.787C153.397 229.68 148.224 240.323 147.337 253.972C156.233 254.393 165.149 253.889 173.942 252.469C175.346 252.247 186.998 252.986 187.761 251.557C188.845 249.512 180.642 226.92 179.731 224.925C177.809 220.835 177.267 212.286 177.267 207.679C177.238 204.965 177.345 202.252 177.588 199.549C177.859 195.09 179.484 190.852 178.992 186.245C178.253 179.568 168.005 179.987 162.635 179.987C160.122 180.036 154.407 179.125 151.18 181.712Z" fill="#CB1122"/>
        <path d="M159.752 132.635C164.236 129.334 175.223 131.182 178.745 134.852C183.303 139.583 182.736 146.087 183.032 152.468C183.327 158.849 180.297 164.343 184.239 169.369C185.692 171.216 189.855 172.399 189.708 175.306C189.511 178.755 186.727 178.878 183.697 177.523C182.293 185.284 177.76 187.206 171.503 183.141C170.641 187.329 159.555 187.427 159.679 182.623C154.604 182.328 149.825 183.486 150.244 176.513C144.578 177.055 144.233 176.242 145.317 170.28C146.007 166.363 151.328 166.708 152.707 162.889C155.195 155.079 148.322 134.039 159.752 132.635Z" fill="#445E77"/>
        <path d="M144.43 100.484C163.981 100.484 179.829 84.6335 179.829 65.0809C179.829 45.5283 163.981 29.6778 144.43 29.6778C124.88 29.6778 109.031 45.5283 109.031 65.0809C109.031 84.6335 124.88 100.484 144.43 100.484Z" fill="#CB1122"/>
        <path d="M142.878 84.7658H142.435C141.277 84.7658 140.218 84.7658 139.281 84.7658C138.345 84.7658 137.458 84.5687 136.621 84.4208C135.789 84.2528 134.966 84.0389 134.158 83.7803C133.322 83.5164 132.5 83.2122 131.694 82.8687C131.798 81.8103 131.996 80.7632 132.285 79.7398C132.556 78.7051 132.901 77.5964 133.295 76.4385C134.66 77.0102 136.08 77.4395 137.532 77.7196C138.933 77.9516 140.35 78.0669 141.769 78.0645C143.584 78.1675 145.391 77.7668 146.992 76.9066C147.606 76.5099 148.102 75.955 148.427 75.3003C148.752 74.6456 148.894 73.9154 148.839 73.1864C148.871 72.4454 148.692 71.7107 148.322 71.0677C147.995 70.5241 147.559 70.0543 147.041 69.688C146.488 69.3304 145.902 69.0252 145.292 68.7764L143.42 67.9881L140.415 66.5591C139.232 66.0418 138.173 65.5244 137.188 64.9824C136.275 64.4389 135.445 63.7668 134.724 62.9868C134.017 62.1975 133.473 61.2766 133.123 60.2767C132.719 59.0535 132.528 57.7704 132.556 56.4827C132.479 55.0952 132.681 53.7064 133.151 52.3987C133.621 51.0909 134.348 49.8909 135.291 48.8699C137.353 46.9004 140.034 45.7074 142.878 45.4946V39.8035C143.624 39.5972 144.395 39.4895 145.169 39.4832C146 39.4882 146.828 39.5958 147.632 39.8035V45.3468C149.016 45.4585 150.391 45.6642 151.746 45.9627C153.077 46.283 154.481 46.6772 155.934 47.1699C155.701 49.285 155.127 51.3483 154.234 53.2799L152.485 52.7379C151.91 52.5098 151.316 52.3286 150.712 52.1958C150.096 52.0727 149.381 51.9495 148.618 51.8509C147.854 51.7524 146.918 51.7277 145.933 51.7277C145.315 51.732 144.698 51.7731 144.085 51.8509C143.487 51.9267 142.909 52.1193 142.385 52.4176C141.883 52.7141 141.46 53.1284 141.154 53.6248C140.812 54.2412 140.65 54.9411 140.686 55.645C140.669 56.2729 140.795 56.8963 141.055 57.4681C141.3 57.9533 141.644 58.3814 142.065 58.7246C142.519 59.0683 143.005 59.3654 143.518 59.6115L145.12 60.3014L148.347 61.6318C149.702 62.1984 150.933 62.7897 152.042 63.3563C153.091 63.8785 154.041 64.5787 154.85 65.4258C155.643 66.2707 156.254 67.2683 156.648 68.3576C157.112 69.7719 157.328 71.2553 157.289 72.743C157.367 75.4204 156.494 78.0389 154.826 80.134C152.903 82.303 150.294 83.7466 147.435 84.2237V90.4322C146.684 90.657 145.904 90.7731 145.12 90.7771C144.286 90.7812 143.457 90.665 142.656 90.4322L142.878 84.7658Z" fill="white"/>
    </g>
    <defs>
        <clipPath id="clip0_19_997">
            <rect width="303" height="396" fill="white"/>
        </clipPath>
    </defs>
</svg>
