<svg width="48" height="48" viewBox="0 0 48 48" fill="none" xmlns="http://www.w3.org/2000/svg">
    <path d="M24 2.5C32.5604 2.5 39.5 9.43959 39.5 18V18.5H40C41.933 18.5 43.5 20.067 43.5 22V42C43.5 43.933 41.933 45.5 40 45.5H8C6.06703 45.5 4.5 43.933 4.5 42V22C4.5 20.067 6.06703 18.5 8 18.5H8.5V18C8.5 9.43959 15.4396 2.5 24 2.5ZM23.5 34.5H24.5V29.5H23.5V34.5ZM24 9.5C19.3056 9.5 15.5 13.3056 15.5 18V18.5H32.5V18C32.5 13.3056 28.6944 9.5 24 9.5Z" fill="white" stroke="#0F1923" stroke-width="3"/>
</svg>
