<svg width="32" height="32" viewBox="0 0 32 32" fill="none" xmlns="http://www.w3.org/2000/svg">
    <path d="M5.33594 29.3333C5.33594 23.4422 10.1116 18.6666 16.0026 18.6666C21.8937 18.6666 26.6693 23.4422 26.6693 29.3333H24.0026C24.0026 24.915 20.4209 21.3333 16.0026 21.3333C11.5843 21.3333 8.0026 24.915 8.0026 29.3333H5.33594ZM16.0026 17.3333C11.5826 17.3333 8.0026 13.7533 8.0026 9.33325C8.0026 4.91325 11.5826 1.33325 16.0026 1.33325C20.4226 1.33325 24.0026 4.91325 24.0026 9.33325C24.0026 13.7533 20.4226 17.3333 16.0026 17.3333ZM16.0026 14.6666C18.9493 14.6666 21.3359 12.2799 21.3359 9.33325C21.3359 6.38659 18.9493 3.99992 16.0026 3.99992C13.0559 3.99992 10.6693 6.38659 10.6693 9.33325C10.6693 12.2799 13.0559 14.6666 16.0026 14.6666Z" fill="white"/>
</svg>
