<svg width="24" height="24" viewBox="0 0 24 24" fill="none" xmlns="http://www.w3.org/2000/svg">
    <path d="M18.839 20.6959L15.779 17.6419L13.579 19.8419L13.302 19.5659C12.9953 19.2592 12.842 18.8802 12.842 18.4289C12.842 17.9776 12.9953 17.5986 13.302 17.2919L17.392 13.2019C17.6986 12.8952 18.0776 12.7419 18.529 12.7419C18.9803 12.7419 19.3593 12.8952 19.666 13.2019L19.942 13.4789L17.742 15.6789L20.796 18.7389C20.958 18.9002 21.039 19.0886 21.039 19.3039C21.039 19.5192 20.958 19.7076 20.796 19.8689L19.969 20.6959C19.8076 20.8572 19.6193 20.9379 19.404 20.9379C19.1886 20.9379 19.0003 20.8572 18.839 20.6959ZM21 5.4769L9.95798 16.5379L10.698 17.2729C11.0046 17.5796 11.158 17.9586 11.158 18.4099C11.158 18.8612 11.0046 19.2399 10.698 19.5459L10.421 19.8229L8.22097 17.6229L5.16097 20.6769C4.99964 20.8382 4.81131 20.9189 4.59598 20.9189C4.38064 20.9189 4.19231 20.8382 4.03098 20.6769L3.20398 19.8499C3.04264 19.6886 2.96198 19.5002 2.96198 19.2849C2.96198 19.0696 3.04264 18.8809 3.20398 18.7189L6.25798 15.6589L4.05798 13.4589L4.33498 13.1829C4.64164 12.8762 5.02031 12.7229 5.47098 12.7229C5.92231 12.7229 6.30131 12.8762 6.60798 13.1829L7.36198 13.9429L18.423 2.8999H21V5.4769ZM7.64198 10.1389L2.99998 5.4769V2.8999H5.57698L10.2 7.5419L7.64198 10.1389Z" fill="white"/>
</svg>
